<?xml version="1.0" encoding="UTF-8"?>
<svg xmlns="http://www.w3.org/2000/svg" xmlns:xlink="http://www.w3.org/1999/xlink" width="320px" height="220px" viewBox="0 0 319 220" version="1.1">
<defs>
<clipPath id="clip1">
  <path d="M 255 208 L 275 208 L 275 219.671875 L 255 219.671875 Z M 255 208 "/>
</clipPath>
<clipPath id="clip2">
  <path d="M 0 218 L 319 218 L 319 219.671875 L 0 219.671875 Z M 0 218 "/>
</clipPath>
<clipPath id="clip3">
  <path d="M 291 208 L 311 208 L 311 219.671875 L 291 219.671875 Z M 291 208 "/>
</clipPath>
<clipPath id="clip4">
  <path d="M 11 0.328125 L 154 0.328125 L 154 144 L 11 144 Z M 11 0.328125 "/>
</clipPath>
<clipPath id="clip5">
  <path d="M 100 108 L 273 108 L 273 219.671875 L 100 219.671875 Z M 100 108 "/>
</clipPath>
</defs>
<g id="surface1">
<path style=" stroke:none;fill-rule:nonzero;fill:rgb(100%,72.156863%,72.156863%);fill-opacity:1;" d="M 273.863281 91.914062 C 278.261719 96.546875 283.167969 97.289062 288.582031 94.132812 C 286.308594 90.472656 285.769531 86.492188 286.375 82.296875 L 275.828125 82.296875 C 276.292969 85.984375 276.167969 89.414062 273.863281 91.914062 Z M 291.277344 213.214844 L 296.921875 210.257812 L 299.375 178.945312 L 299.375 162.425781 L 286.375 162.179688 L 290.050781 178.699219 Z M 274.925781 213.214844 L 269.285156 210.257812 L 266.832031 178.945312 L 266.832031 162.425781 L 279.832031 162.179688 L 276.152344 178.699219 Z M 274.925781 213.214844 "/>
<path style=" stroke:none;fill-rule:nonzero;fill:rgb(1.176471%,9.411765%,24.705882%);fill-opacity:1;" d="M 266.261719 165.878906 L 279.996094 164.644531 L 282.203125 152.070312 L 284.902344 164.398438 L 299.863281 163.410156 C 300.191406 157.421875 299.359375 151.257812 297.410156 144.921875 L 264.542969 144.179688 Z M 266.261719 165.878906 "/>
<path style=" stroke:none;fill-rule:nonzero;fill:rgb(100%,72.156863%,72.156863%);fill-opacity:1;" d="M 251.984375 118.65625 L 235.460938 105.867188 C 235.289062 105.734375 235.101562 105.625 234.902344 105.542969 L 232.5 104.5625 C 230.570312 103.773438 226.898438 101.148438 228.6875 98.445312 C 230.132812 96.269531 235.664062 100.171875 236.34375 101.617188 C 236.558594 102.070312 236.910156 102.445312 237.351562 102.6875 L 240.707031 104.535156 C 240.789062 104.582031 240.875 104.621094 240.960938 104.65625 L 253.746094 109.863281 C 254.464844 110.15625 255.277344 110.082031 255.933594 109.667969 L 258.25 108.1875 C 259.28125 107.53125 260.640625 107.753906 261.40625 108.710938 C 261.652344 109.015625 261.820312 109.375 261.894531 109.761719 L 262.660156 113.644531 C 262.773438 114.207031 262.683594 114.785156 262.40625 115.285156 C 262.132812 115.785156 261.691406 116.167969 261.160156 116.371094 L 254.304688 119 C 253.527344 119.296875 252.644531 119.167969 251.984375 118.65625 Z M 251.984375 118.65625 "/>
<path style=" stroke:none;fill-rule:nonzero;fill:rgb(61.176471%,1.176471%,19.607843%);fill-opacity:1;" d="M 255.054688 109.335938 C 259.628906 108.105469 259.148438 114.527344 262.636719 117.6875 L 269.5 112.242188 L 265.523438 92.898438 C 264.457031 93.207031 263.476562 93.757812 262.660156 94.507812 C 261.839844 95.261719 261.210938 96.195312 260.8125 97.238281 Z M 255.054688 109.335938 "/>
<path style=" stroke:none;fill-rule:nonzero;fill:rgb(61.176471%,1.176471%,19.607843%);fill-opacity:1;" d="M 263.5625 145.414062 L 298.148438 145.414062 C 292.550781 130.253906 293.09375 114.660156 297.859375 98.769531 C 298.027344 98.226562 297.78125 97.640625 297.28125 97.375 L 287.355469 92.160156 C 283.457031 94.707031 279.269531 93.925781 274.847656 90.433594 L 264.054688 93.390625 C 266.992188 111.128906 267.074219 128.5 263.5625 145.414062 Z M 263.5625 145.414062 "/>
<g clip-path="url(#clip1)" clip-rule="nonzero">
<path style=" stroke:none;fill-rule:nonzero;fill:rgb(1.176471%,9.411765%,24.705882%);fill-opacity:1;" d="M 272.210938 219.007812 L 257.796875 219.621094 C 257.171875 219.648438 256.554688 219.4375 256.070312 219.039062 C 255.0625 218.199219 254.847656 216.730469 255.578125 215.640625 C 255.929688 215.109375 256.46875 214.734375 257.085938 214.582031 L 259.527344 213.976562 L 269.136719 208.378906 C 270.5625 209.863281 272.519531 211.113281 274.917969 212.183594 L 274.945312 216.117188 C 274.949219 216.859375 274.667969 217.578125 274.160156 218.117188 C 273.648438 218.65625 272.949219 218.972656 272.210938 219.007812 Z M 272.210938 219.007812 "/>
</g>
<g clip-path="url(#clip2)" clip-rule="nonzero">
<path style=" stroke:none;fill-rule:nonzero;fill:rgb(24.705882%,23.921569%,33.72549%);fill-opacity:0.4;" d="M 318.855469 219.671875 L 0.117188 219.671875 L 0.117188 218.878906 L 319 218.878906 Z M 318.855469 219.671875 "/>
</g>
<g clip-path="url(#clip3)" clip-rule="nonzero">
<path style=" stroke:none;fill-rule:nonzero;fill:rgb(1.176471%,9.411765%,24.705882%);fill-opacity:1;" d="M 293.875 218.785156 L 308.289062 219.398438 C 308.917969 219.425781 309.53125 219.21875 310.015625 218.816406 C 311.027344 217.980469 311.238281 216.511719 310.507812 215.421875 C 310.15625 214.890625 309.617188 214.511719 309 214.359375 L 306.558594 213.757812 L 296.949219 208.160156 C 295.527344 209.640625 293.566406 210.894531 291.167969 211.960938 L 291.140625 215.898438 C 291.136719 216.640625 291.417969 217.355469 291.929688 217.898438 C 292.4375 218.433594 293.136719 218.753906 293.875 218.785156 Z M 293.875 218.785156 "/>
</g>
<path style=" stroke:none;fill-rule:nonzero;fill:rgb(100%,72.156863%,72.156863%);fill-opacity:1;" d="M 279.996094 86.734375 C 284.332031 86.734375 287.84375 83.203125 287.84375 78.84375 C 287.84375 74.488281 284.332031 70.957031 279.996094 70.957031 C 275.660156 70.957031 272.148438 74.488281 272.148438 78.84375 C 272.148438 83.203125 275.660156 86.734375 279.996094 86.734375 Z M 292.261719 142.949219 L 289.667969 148.015625 C 288.960938 149.398438 289.226562 151.082031 290.324219 152.179688 C 291.066406 152.914062 292.089844 153.289062 293.128906 153.195312 C 293.65625 153.152344 294.167969 152.984375 294.625 152.714844 C 295.546875 152.167969 296.175781 151.226562 296.328125 150.160156 L 297.410156 142.703125 L 301.335938 123.964844 L 301.089844 114.59375 L 293.242188 114.59375 C 295.917969 121.5625 294.589844 131.84375 292.261719 142.949219 Z M 292.261719 142.949219 "/>
<path style=" stroke:none;fill-rule:nonzero;fill:rgb(61.176471%,1.176471%,19.607843%);fill-opacity:1;" d="M 292.015625 115.582031 L 302.5625 115.582031 L 301.03125 103.953125 C 300.824219 102.378906 300.226562 100.878906 299.292969 99.59375 C 298.363281 98.308594 297.125 97.277344 295.695312 96.597656 Z M 292.015625 115.582031 "/>
<path style=" stroke:none;fill-rule:nonzero;fill:rgb(1.176471%,9.411765%,24.705882%);fill-opacity:1;" d="M 288.339844 74.5 C 288.660156 72.371094 288.058594 70.203125 286.691406 68.542969 C 285.351562 66.949219 283.109375 65.644531 279.382812 66.261719 C 271.257812 67.601562 268.914062 74.402344 269.710938 76.109375 C 270.507812 77.820312 272.949219 81.785156 272.949219 81.785156 C 272.949219 81.785156 271.15625 77.859375 273.101562 77.0625 C 275.042969 76.261719 282.566406 73.117188 285.191406 74.535156 C 285.933594 74.910156 286.566406 75.476562 287.019531 76.175781 C 287.472656 76.875 287.734375 77.683594 287.777344 78.519531 Z M 288.339844 74.5 "/>
<g clip-path="url(#clip4)" clip-rule="nonzero">
<path style=" stroke:none;fill-rule:nonzero;fill:rgb(90.196078%,90.196078%,90.196078%);fill-opacity:1;" d="M 154 41.664062 L 150.84375 43.273438 C 147.210938 36.082031 142.398438 29.558594 136.601562 23.96875 C 108.148438 -3.527344 62.746094 -2.628906 35.394531 25.972656 C 8.039062 54.570312 8.933594 100.207031 37.386719 127.703125 C 42.796875 132.945312 49.003906 137.296875 55.769531 140.601562 L 54.226562 143.800781 C 43.496094 138.5625 34.167969 130.839844 27.011719 121.273438 C 19.84375 111.691406 15.046875 100.542969 13.019531 88.746094 C 10.988281 76.941406 11.78125 64.820312 15.332031 53.382812 C 18.878906 41.953125 25.085938 31.53125 33.441406 22.976562 C 41.78125 14.433594 52.035156 8.003906 63.355469 4.222656 C 74.664062 0.445312 86.707031 -0.574219 98.484375 1.253906 C 110.269531 3.082031 121.449219 7.699219 131.097656 14.722656 C 140.757812 21.757812 148.605469 30.992188 154 41.664062 Z M 154 41.664062 "/>
</g>
<path style=" stroke:none;fill-rule:nonzero;fill:rgb(90.196078%,90.196078%,90.196078%);fill-opacity:1;" d="M 47.238281 107.839844 C 42.59375 112.699219 40.058594 119.207031 40.191406 125.933594 C 40.324219 132.660156 43.109375 139.058594 47.941406 143.730469 C 52.761719 148.394531 59.238281 150.941406 65.9375 150.8125 C 72.640625 150.675781 79.011719 147.875 83.644531 143.023438 L 87.992188 138.480469 L 51.582031 103.292969 Z M 47.238281 107.839844 "/>
<path style=" stroke:none;fill-rule:nonzero;fill:rgb(1.176471%,9.411765%,24.705882%);fill-opacity:1;" d="M 49.144531 100.710938 C 48.109375 101.796875 47.546875 103.246094 47.578125 104.746094 C 47.605469 106.246094 48.226562 107.671875 49.300781 108.714844 L 82.695312 140.984375 C 83.769531 142.023438 85.214844 142.59375 86.710938 142.5625 C 88.203125 142.535156 89.625 141.910156 90.65625 140.828125 C 92.8125 138.574219 92.742188 134.996094 90.5 132.828125 L 57.105469 100.554688 C 56.027344 99.515625 54.585938 98.949219 53.09375 98.980469 C 51.597656 99.007812 50.179688 99.632812 49.144531 100.710938 Z M 49.144531 100.710938 "/>
<path style=" stroke:none;fill-rule:nonzero;fill:rgb(90.196078%,90.196078%,90.196078%);fill-opacity:1;" d="M 149.304688 74.375 L 153.652344 69.828125 C 158.296875 64.964844 160.832031 58.460938 160.695312 51.734375 C 160.566406 45.007812 157.78125 38.609375 152.949219 33.9375 C 150.5625 31.625 147.742188 29.8125 144.652344 28.597656 C 141.5625 27.382812 138.265625 26.789062 134.949219 26.855469 C 128.25 26.992188 121.878906 29.792969 117.242188 34.644531 L 112.894531 39.1875 Z M 149.304688 74.375 "/>
<path style=" stroke:none;fill-rule:nonzero;fill:rgb(1.176471%,9.411765%,24.705882%);fill-opacity:1;" d="M 110.234375 36.839844 C 109.199219 37.925781 108.636719 39.375 108.664062 40.875 C 108.695312 42.371094 109.316406 43.796875 110.390625 44.839844 L 143.785156 77.113281 C 144.859375 78.152344 146.304688 78.71875 147.796875 78.6875 C 149.289062 78.65625 150.710938 78.03125 151.742188 76.953125 C 152.777344 75.867188 153.34375 74.417969 153.3125 72.921875 C 153.285156 71.421875 152.664062 69.996094 151.589844 68.953125 L 118.195312 36.683594 C 117.117188 35.644531 115.675781 35.078125 114.179688 35.105469 C 112.6875 35.136719 111.265625 35.761719 110.234375 36.839844 Z M 124.320312 111.417969 L 124.320312 108.796875 C 124.320312 108.796875 135.703125 102.359375 144.953125 108.796875 L 144.953125 111.179688 Z M 227.949219 111.417969 L 227.949219 108.796875 C 227.949219 108.796875 239.332031 102.359375 248.582031 108.796875 L 248.582031 111.179688 Z M 227.949219 111.417969 "/>
<g clip-path="url(#clip5)" clip-rule="nonzero">
<path style=" stroke:none;fill-rule:nonzero;fill:rgb(90.196078%,90.196078%,90.196078%);fill-opacity:1;" d="M 158.46875 111.179688 L 147.324219 111.179688 C 147.324219 111.179688 144.476562 107.84375 134.992188 108.082031 C 125.507812 108.320312 123.609375 111.179688 123.609375 111.179688 C 123.609375 111.179688 114.242188 117.496094 112.109375 125.363281 C 112.109375 125.363281 100.605469 160.042969 100.371094 187.21875 C 100.132812 214.394531 110.566406 218.207031 116.019531 218.921875 C 121.476562 219.636719 131.199219 218.683594 140.683594 194.609375 L 144.714844 180.542969 C 144.714844 180.542969 145.425781 172.203125 153.964844 177.445312 C 162.5 182.691406 170.089844 174.585938 170.089844 174.585938 L 202.101562 174.585938 C 202.101562 174.585938 212.773438 181.257812 222.496094 176.015625 C 222.496094 176.015625 226.289062 171.011719 229.847656 187.933594 C 229.847656 187.933594 240.753906 222.734375 257.589844 219.160156 C 274.429688 215.585938 272.53125 186.503906 272.53125 186.503906 C 272.53125 186.503906 270.277344 142.046875 261.03125 126.316406 C 261.03125 126.316406 252.136719 109.988281 246.207031 109.273438 C 246.207031 109.273438 233.402344 106.890625 228.421875 109.035156 L 225.578125 111.417969 Z M 158.46875 111.179688 "/>
</g>
<path style=" stroke:none;fill-rule:nonzero;fill:rgb(1.176471%,9.411765%,24.705882%);fill-opacity:1;" d="M 132.621094 155.277344 C 144.015625 155.277344 153.25 145.992188 153.25 134.539062 C 153.25 123.085938 144.015625 113.800781 132.621094 113.800781 C 121.226562 113.800781 111.988281 123.085938 111.988281 134.539062 C 111.988281 145.992188 121.226562 155.277344 132.621094 155.277344 Z M 240.28125 155.277344 C 251.675781 155.277344 260.910156 145.992188 260.910156 134.539062 C 260.910156 123.085938 251.675781 113.800781 240.28125 113.800781 C 228.886719 113.800781 219.648438 123.085938 219.648438 134.539062 C 219.648438 145.992188 228.886719 155.277344 240.28125 155.277344 Z M 240.28125 155.277344 "/>
<path style=" stroke:none;fill-rule:nonzero;fill:rgb(90.196078%,90.196078%,90.196078%);fill-opacity:1;" d="M 136.214844 129.914062 L 133.464844 132.359375 C 132.984375 132.789062 132.261719 132.789062 131.777344 132.359375 L 129.023438 129.914062 C 128.886719 129.796875 128.78125 129.648438 128.707031 129.484375 C 128.632812 129.320312 128.59375 129.144531 128.59375 128.960938 L 128.59375 122.234375 C 128.59375 121.894531 128.726562 121.566406 128.964844 121.328125 C 129.203125 121.089844 129.527344 120.953125 129.867188 120.953125 L 135.382812 120.953125 C 135.71875 120.953125 136.042969 121.085938 136.285156 121.328125 C 136.523438 121.566406 136.65625 121.890625 136.65625 122.230469 L 136.65625 128.957031 C 136.652344 129.324219 136.492188 129.675781 136.214844 129.914062 Z M 136.214844 139.160156 L 133.464844 136.71875 C 132.984375 136.292969 132.261719 136.292969 131.777344 136.71875 L 129.023438 139.164062 C 128.886719 139.285156 128.78125 139.429688 128.707031 139.59375 C 128.632812 139.757812 128.59375 139.9375 128.59375 140.117188 L 128.59375 146.839844 C 128.589844 147.179688 128.722656 147.503906 128.960938 147.746094 C 129.199219 147.984375 129.523438 148.121094 129.863281 148.121094 L 135.382812 148.121094 C 136.085938 148.121094 136.65625 147.550781 136.65625 146.84375 L 136.65625 140.121094 C 136.652344 139.753906 136.492188 139.402344 136.214844 139.160156 Z M 128.023438 138.15625 L 130.457031 135.386719 C 130.878906 134.902344 130.878906 134.179688 130.457031 133.695312 L 128.023438 130.921875 C 127.78125 130.652344 127.4375 130.492188 127.074219 130.492188 L 120.386719 130.492188 C 120.046875 130.492188 119.722656 130.625 119.484375 130.867188 C 119.246094 131.105469 119.113281 131.433594 119.113281 131.773438 L 119.113281 137.3125 C 119.113281 137.652344 119.246094 137.980469 119.484375 138.21875 C 119.722656 138.460938 120.046875 138.597656 120.382812 138.597656 L 127.078125 138.597656 C 127.441406 138.59375 127.785156 138.433594 128.023438 138.15625 Z M 137.222656 138.15625 L 134.792969 135.386719 C 134.367188 134.902344 134.367188 134.175781 134.792969 133.691406 L 137.226562 130.921875 C 137.464844 130.648438 137.8125 130.488281 138.175781 130.488281 L 144.863281 130.488281 C 145.566406 130.488281 146.136719 131.058594 146.136719 131.765625 L 146.136719 137.3125 C 146.136719 138.015625 145.570312 138.589844 144.867188 138.59375 L 138.175781 138.59375 C 137.8125 138.59375 137.460938 138.433594 137.222656 138.15625 Z M 137.222656 138.15625 "/>
<path style=" stroke:none;fill-rule:nonzero;fill:rgb(1.176471%,9.411765%,24.705882%);fill-opacity:1;" d="M 160.601562 172.203125 C 168.855469 172.203125 175.542969 165.476562 175.542969 157.183594 C 175.542969 148.890625 168.855469 142.167969 160.601562 142.167969 C 152.351562 142.167969 145.664062 148.890625 145.664062 157.183594 C 145.664062 165.476562 152.351562 172.203125 160.601562 172.203125 Z M 212.296875 172.203125 C 220.550781 172.203125 227.238281 165.476562 227.238281 157.183594 C 227.238281 148.890625 220.550781 142.167969 212.296875 142.167969 C 204.046875 142.167969 197.359375 148.890625 197.359375 157.183594 C 197.359375 165.476562 204.046875 172.203125 212.296875 172.203125 Z M 212.296875 172.203125 "/>
<path style=" stroke:none;fill-rule:nonzero;fill:rgb(90.196078%,90.196078%,90.196078%);fill-opacity:1;" d="M 160.601562 167.195312 C 166.105469 167.195312 170.5625 162.714844 170.5625 157.183594 C 170.5625 151.65625 166.105469 147.171875 160.601562 147.171875 C 155.101562 147.171875 150.644531 151.65625 150.644531 157.183594 C 150.644531 162.714844 155.101562 167.195312 160.601562 167.195312 Z M 160.601562 167.195312 "/>
<path style=" stroke:none;fill-rule:nonzero;fill:rgb(1.176471%,9.411765%,24.705882%);fill-opacity:1;" d="M 160.601562 164.097656 C 159.242188 164.097656 157.914062 163.691406 156.78125 162.933594 C 155.648438 162.171875 154.769531 161.09375 154.25 159.828125 C 153.730469 158.566406 153.59375 157.175781 153.859375 155.835938 C 154.121094 154.496094 154.777344 153.265625 155.738281 152.296875 C 157.703125 150.320312 160.664062 149.726562 163.234375 150.796875 C 164.492188 151.320312 165.566406 152.207031 166.320312 153.34375 C 167.078125 154.480469 167.480469 155.816406 167.480469 157.183594 C 167.476562 159.015625 166.753906 160.773438 165.464844 162.070312 C 164.175781 163.367188 162.425781 164.09375 160.601562 164.097656 Z M 160.601562 150.75 C 159.335938 150.75 158.097656 151.125 157.046875 151.832031 C 155.992188 152.542969 155.171875 153.546875 154.6875 154.722656 C 153.695312 157.125 154.242188 159.890625 156.074219 161.734375 C 157.902344 163.574219 160.660156 164.128906 163.054688 163.128906 C 164.222656 162.640625 165.222656 161.816406 165.925781 160.761719 C 166.628906 159.699219 167.003906 158.457031 167.003906 157.183594 C 167.003906 155.480469 166.328125 153.84375 165.128906 152.636719 C 163.929688 151.429688 162.300781 150.75 160.601562 150.75 Z M 160.601562 150.75 "/>
<path style=" stroke:none;fill-rule:nonzero;fill:rgb(90.196078%,90.196078%,90.196078%);fill-opacity:1;" d="M 212.296875 167.195312 C 217.800781 167.195312 222.257812 162.714844 222.257812 157.183594 C 222.257812 151.65625 217.800781 147.171875 212.296875 147.171875 C 206.796875 147.171875 202.339844 151.65625 202.339844 157.183594 C 202.339844 162.714844 206.796875 167.195312 212.296875 167.195312 Z M 212.296875 167.195312 "/>
<path style=" stroke:none;fill-rule:nonzero;fill:rgb(1.176471%,9.411765%,24.705882%);fill-opacity:1;" d="M 212.296875 164.097656 C 210.9375 164.097656 209.609375 163.691406 208.476562 162.933594 C 207.347656 162.171875 206.464844 161.09375 205.945312 159.828125 C 205.425781 158.566406 205.289062 157.175781 205.554688 155.835938 C 205.820312 154.496094 206.472656 153.265625 207.4375 152.296875 C 209.398438 150.320312 212.359375 149.726562 214.929688 150.796875 C 216.1875 151.320312 217.261719 152.207031 218.015625 153.34375 C 218.773438 154.480469 219.175781 155.816406 219.175781 157.183594 C 219.175781 159.015625 218.449219 160.773438 217.160156 162.070312 C 215.871094 163.363281 214.125 164.09375 212.296875 164.097656 Z M 212.296875 150.75 C 211.03125 150.75 209.792969 151.125 208.742188 151.832031 C 207.6875 152.542969 206.867188 153.546875 206.382812 154.722656 C 205.390625 157.125 205.9375 159.890625 207.769531 161.734375 C 209.597656 163.574219 212.355469 164.128906 214.75 163.128906 C 215.917969 162.640625 216.917969 161.816406 217.621094 160.761719 C 218.324219 159.699219 218.699219 158.457031 218.699219 157.183594 C 218.699219 155.480469 218.023438 153.84375 216.824219 152.636719 C 215.625 151.429688 213.996094 150.75 212.296875 150.75 Z M 186.925781 163.144531 C 189.28125 163.144531 191.195312 161.222656 191.195312 158.851562 C 191.195312 156.484375 189.28125 154.5625 186.925781 154.5625 C 184.566406 154.5625 182.65625 156.484375 182.65625 158.851562 C 182.65625 161.222656 184.566406 163.144531 186.925781 163.144531 Z M 180.402344 145.46875 C 180.917969 145.46875 181.335938 145.046875 181.332031 144.53125 C 181.335938 144.015625 180.917969 143.597656 180.402344 143.59375 C 179.886719 143.597656 179.46875 144.015625 179.46875 144.53125 C 179.46875 145.050781 179.886719 145.46875 180.402344 145.46875 Z M 183.890625 145.46875 C 184.40625 145.46875 184.824219 145.046875 184.824219 144.53125 C 184.824219 144.015625 184.40625 143.597656 183.890625 143.59375 C 183.375 143.597656 182.960938 144.015625 182.960938 144.53125 C 182.960938 145.050781 183.378906 145.46875 183.890625 145.46875 Z M 183.425781 149.914062 C 183.941406 149.914062 184.359375 149.496094 184.359375 148.976562 C 184.359375 148.460938 183.941406 148.042969 183.425781 148.039062 C 182.910156 148.042969 182.496094 148.460938 182.496094 148.976562 C 182.496094 149.492188 182.910156 149.914062 183.425781 149.914062 Z M 186.6875 150.035156 C 187.210938 150.035156 187.636719 149.605469 187.636719 149.082031 C 187.636719 148.554688 187.210938 148.125 186.6875 148.125 C 186.164062 148.125 185.738281 148.554688 185.738281 149.082031 C 185.738281 149.605469 186.164062 150.035156 186.6875 150.035156 Z M 189.945312 149.914062 C 190.460938 149.914062 190.875 149.492188 190.875 148.976562 C 190.875 148.460938 190.460938 148.042969 189.945312 148.039062 C 189.429688 148.042969 189.011719 148.460938 189.011719 148.976562 C 189.011719 149.496094 189.429688 149.914062 189.945312 149.914062 Z M 182.03125 147.808594 C 182.546875 147.808594 182.964844 147.390625 182.960938 146.875 C 182.964844 146.355469 182.546875 145.9375 182.03125 145.9375 C 181.515625 145.9375 181.097656 146.355469 181.097656 146.875 C 181.097656 147.390625 181.515625 147.808594 182.03125 147.808594 Z M 185.027344 147.886719 C 185.550781 147.886719 185.976562 147.460938 185.976562 146.933594 C 185.976562 146.40625 185.550781 145.980469 185.027344 145.980469 C 184.503906 145.980469 184.078125 146.40625 184.078125 146.933594 C 184.078125 147.460938 184.503906 147.886719 185.027344 147.886719 Z M 188.109375 147.886719 C 188.632812 147.886719 189.058594 147.460938 189.058594 146.933594 C 189.058594 146.40625 188.632812 145.980469 188.109375 145.980469 C 187.585938 145.980469 187.164062 146.40625 187.164062 146.933594 C 187.164062 147.460938 187.585938 147.886719 188.109375 147.886719 Z M 191.339844 147.808594 C 191.855469 147.808594 192.273438 147.390625 192.273438 146.875 C 192.273438 146.355469 191.855469 145.9375 191.339844 145.9375 C 190.824219 145.9375 190.410156 146.355469 190.410156 146.875 C 190.40625 147.390625 190.824219 147.808594 191.339844 147.808594 Z M 186.6875 145.503906 C 187.210938 145.503906 187.636719 145.078125 187.636719 144.550781 C 187.636719 144.023438 187.210938 143.597656 186.6875 143.597656 C 186.164062 143.597656 185.738281 144.023438 185.738281 144.550781 C 185.738281 145.078125 186.164062 145.503906 186.6875 145.503906 Z M 190.007812 145.503906 C 190.53125 145.503906 190.957031 145.078125 190.957031 144.550781 C 190.957031 144.023438 190.53125 143.597656 190.007812 143.597656 C 189.484375 143.597656 189.058594 144.023438 189.058594 144.550781 C 189.058594 145.078125 189.484375 145.503906 190.007812 145.503906 Z M 192.738281 145.46875 C 193.253906 145.46875 193.667969 145.046875 193.667969 144.53125 C 193.667969 144.015625 193.253906 143.597656 192.738281 143.59375 C 192.222656 143.597656 191.804688 144.015625 191.804688 144.53125 C 191.804688 145.050781 192.222656 145.46875 192.738281 145.46875 Z M 151.472656 113.210938 C 151.035156 113.210938 150.613281 113.386719 150.304688 113.699219 C 149.992188 114.011719 149.820312 114.433594 149.816406 114.875 L 149.816406 119.878906 C 149.820312 120.320312 149.992188 120.746094 150.304688 121.054688 C 150.613281 121.367188 151.035156 121.542969 151.472656 121.542969 L 152.660156 121.542969 C 153.097656 121.542969 153.519531 121.367188 153.828125 121.054688 C 154.136719 120.742188 154.3125 120.320312 154.3125 119.878906 L 154.3125 114.875 C 154.3125 114.433594 154.136719 114.011719 153.828125 113.699219 C 153.519531 113.386719 153.097656 113.210938 152.660156 113.210938 Z M 220.71875 113.210938 C 220.277344 113.210938 219.855469 113.386719 219.546875 113.699219 C 219.238281 114.011719 219.0625 114.433594 219.0625 114.875 L 219.0625 119.878906 C 219.0625 120.320312 219.238281 120.746094 219.546875 121.054688 C 219.859375 121.367188 220.277344 121.542969 220.71875 121.542969 L 221.902344 121.542969 C 222.339844 121.542969 222.761719 121.367188 223.070312 121.054688 C 223.382812 120.742188 223.558594 120.320312 223.558594 119.878906 L 223.558594 114.875 C 223.558594 114.433594 223.382812 114.011719 223.070312 113.699219 C 222.761719 113.386719 222.339844 113.210938 221.902344 113.210938 Z M 220.71875 113.210938 "/>
<path style=" stroke:none;fill-rule:nonzero;fill:rgb(90.196078%,90.196078%,90.196078%);fill-opacity:1;" d="M 240.519531 127.628906 C 243.660156 127.628906 246.210938 125.066406 246.210938 121.90625 C 246.210938 118.746094 243.660156 116.1875 240.519531 116.1875 C 237.375 116.1875 234.828125 118.746094 234.828125 121.90625 C 234.828125 125.066406 237.375 127.628906 240.519531 127.628906 Z M 228.421875 139.785156 C 231.566406 139.785156 234.113281 137.222656 234.113281 134.0625 C 234.113281 130.902344 231.566406 128.34375 228.421875 128.34375 C 225.28125 128.34375 222.730469 130.902344 222.730469 134.0625 C 222.730469 137.222656 225.28125 139.785156 228.421875 139.785156 Z M 253.085938 139.070312 C 256.230469 139.070312 258.777344 136.507812 258.777344 133.347656 C 258.777344 130.1875 256.230469 127.628906 253.085938 127.628906 C 249.941406 127.628906 247.394531 130.1875 247.394531 133.347656 C 247.394531 136.507812 249.941406 139.070312 253.085938 139.070312 Z M 241.464844 151.703125 C 244.609375 151.703125 247.15625 149.140625 247.15625 145.980469 C 247.15625 142.820312 244.609375 140.261719 241.464844 140.261719 C 238.324219 140.261719 235.773438 142.820312 235.773438 145.980469 C 235.773438 149.140625 238.324219 151.703125 241.464844 151.703125 Z M 241.464844 151.703125 "/>
<path style=" stroke:none;fill-rule:nonzero;fill:rgb(1.176471%,9.411765%,24.705882%);fill-opacity:1;" d="M 162.203125 109.875 C 160.929688 109.875 159.710938 110.386719 158.8125 111.289062 C 157.914062 112.195312 157.40625 113.417969 157.40625 114.695312 L 157.40625 136.03125 C 157.40625 137.308594 157.914062 138.53125 158.8125 139.4375 C 159.710938 140.339844 160.929688 140.847656 162.203125 140.851562 L 210.933594 140.851562 C 212.207031 140.847656 213.425781 140.339844 214.324219 139.4375 C 215.226562 138.53125 215.730469 137.308594 215.730469 136.03125 L 215.730469 114.695312 C 215.730469 113.417969 215.226562 112.195312 214.324219 111.289062 C 213.425781 110.386719 212.207031 109.875 210.933594 109.875 Z M 244.382812 124.527344 L 236.667969 124.527344 L 240.390625 118.109375 Z M 237.492188 124.050781 L 243.527344 124.050781 L 240.40625 119.03125 Z M 231.625 136.921875 L 225.222656 136.921875 L 225.222656 131.203125 L 231.625 131.203125 Z M 225.695312 136.445312 L 231.152344 136.445312 L 231.152344 131.679688 L 225.695312 131.679688 Z M 253.085938 136.921875 C 252.382812 136.921875 251.695312 136.714844 251.109375 136.320312 C 250.222656 135.722656 249.648438 134.761719 249.546875 133.699219 C 249.441406 132.632812 249.816406 131.578125 250.570312 130.820312 C 251.324219 130.0625 252.375 129.683594 253.4375 129.789062 C 254.496094 129.894531 255.453125 130.472656 256.042969 131.363281 C 256.984375 132.78125 256.800781 134.667969 255.601562 135.875 C 254.933594 136.546875 254.03125 136.921875 253.085938 136.921875 Z M 253.085938 130.25 C 252.476562 130.25 251.878906 130.429688 251.375 130.773438 C 250.605469 131.289062 250.109375 132.125 250.019531 133.046875 C 249.929688 133.96875 250.253906 134.882812 250.90625 135.539062 C 251.558594 136.195312 252.46875 136.523438 253.390625 136.433594 C 254.308594 136.339844 255.136719 135.839844 255.648438 135.070312 C 256.464844 133.839844 256.304688 132.203125 255.265625 131.15625 C 254.6875 130.578125 253.902344 130.25 253.085938 130.25 Z M 238.90625 143.132812 L 238.570312 143.46875 L 243.90625 148.832031 L 244.242188 148.496094 Z M 238.90625 143.132812 "/>
<path style=" stroke:none;fill-rule:nonzero;fill:rgb(1.176471%,9.411765%,24.705882%);fill-opacity:1;" d="M 244.027344 143.128906 L 238.574219 148.371094 L 238.902344 148.714844 L 244.355469 143.472656 Z M 50.40625 55.40625 C 37.460938 58.996094 23.28125 61.695312 18.199219 57.503906 C 20.984375 52.851562 22.585938 48.261719 22.722656 43.757812 C 22.753906 41.699219 23.582031 39.730469 25.039062 38.273438 C 26 37.339844 27.160156 36.640625 28.433594 36.222656 C 29.703125 35.808594 31.054688 35.691406 32.378906 35.878906 L 35.738281 36.351562 C 35.851562 36.367188 35.964844 36.386719 36.078125 36.40625 C 37.691406 36.714844 39.167969 37.519531 40.300781 38.714844 C 41.433594 39.910156 42.164062 41.429688 42.394531 43.0625 C 43.101562 47.945312 45.484375 52.175781 50.40625 55.40625 Z M 50.40625 55.40625 "/>
<path style=" stroke:none;fill-rule:nonzero;fill:rgb(62.745098%,38.039216%,41.568627%);fill-opacity:1;" d="M 62.898438 101.746094 L 67.929688 102.789062 C 68.316406 102.867188 68.675781 103.03125 68.988281 103.269531 C 69.964844 104.007812 70.308594 105.320312 69.824219 106.441406 C 69.359375 107.523438 68.238281 108.167969 67.074219 108.027344 C 66.695312 107.980469 66.335938 107.855469 66.011719 107.65625 L 58.3125 102.894531 L 45.234375 71.992188 L 52.007812 70.019531 Z M 27.039062 142.296875 L 23.226562 143.410156 L 20.34375 137.421875 L 23.277344 135.882812 Z M 25.101562 167.957031 L 20.425781 166.710938 L 21.160156 158.636719 L 25.183594 158.882812 Z M 25.101562 167.957031 "/>
<path style=" stroke:none;fill-rule:nonzero;fill:rgb(1.176471%,9.411765%,24.705882%);fill-opacity:1;" d="M 25.589844 136.695312 L 20.636719 139.972656 L 1.589844 118.316406 C 0.308594 116.855469 0.167969 114.714844 1.25 113.101562 C 1.597656 112.582031 2.054688 112.148438 2.589844 111.824219 L 26.324219 97.570312 L 29.957031 108.066406 L 17.601562 119.722656 Z M 29.761719 148.035156 L 29.722656 148.082031 C 29.40625 149.945312 28.851562 151.644531 27.609375 152.875 C 27.242188 153.710938 26.582031 154.378906 25.753906 154.753906 C 24.925781 155.128906 23.988281 155.1875 23.125 154.914062 C 22.304688 154.652344 21.605469 154.117188 21.136719 153.398438 C 20.671875 152.675781 20.46875 151.8125 20.5625 150.957031 L 21.488281 142.640625 C 23.707031 142.128906 25.402344 140.859375 26.257812 138.390625 L 28.414062 139.867188 C 29.707031 140.746094 30.582031 142.117188 30.835938 143.660156 C 31.089844 145.203125 30.703125 146.785156 29.761719 148.035156 Z M 29.761719 148.035156 "/>
<path style=" stroke:none;fill-rule:nonzero;fill:rgb(62.745098%,38.039216%,41.568627%);fill-opacity:1;" d="M 32.109375 53.625 C 36.320312 53.625 39.734375 50.195312 39.734375 45.960938 C 39.734375 41.730469 36.320312 38.300781 32.109375 38.300781 C 27.898438 38.300781 24.488281 41.730469 24.488281 45.960938 C 24.488281 50.195312 27.898438 53.625 32.109375 53.625 Z M 32.109375 53.625 "/>
<path style=" stroke:none;fill-rule:nonzero;fill:rgb(62.745098%,38.039216%,41.568627%);fill-opacity:1;" d="M 38.710938 58.210938 L 26.695312 68.214844 L 25.757812 64.097656 L 27.855469 60.882812 C 28.4375 57.730469 28.0625 54.253906 27.0625 50.566406 L 34.902344 50.570312 C 35.238281 53.554688 36.394531 56.152344 38.710938 58.210938 Z M 38.710938 58.210938 "/>
<path style=" stroke:none;fill-rule:nonzero;fill:rgb(61.176471%,1.176471%,19.607843%);fill-opacity:1;" d="M 42.09375 84.457031 L 25.871094 89.421875 L 24.609375 83.625 C 21.566406 79.519531 20.246094 75.773438 22.234375 72.71875 L 21.234375 68.117188 C 24.105469 65.847656 26.363281 63.519531 27.605469 61.109375 L 37.585938 57.1875 L 44.925781 57.640625 L 47.089844 64.941406 Z M 42.09375 84.457031 "/>
<path style=" stroke:none;fill-rule:nonzero;fill:rgb(61.176471%,1.176471%,19.607843%);fill-opacity:1;" d="M 53.621094 70.835938 C 50.160156 70.800781 46.777344 71.84375 43.933594 73.820312 L 44.925781 57.640625 C 45.929688 57.777344 46.882812 58.171875 47.691406 58.789062 C 48.496094 59.40625 49.128906 60.226562 49.527344 61.164062 Z M 53.621094 70.835938 "/>
<path style=" stroke:none;fill-rule:nonzero;fill:rgb(1.176471%,9.411765%,24.705882%);fill-opacity:1;" d="M 25.539062 160.816406 L 20.390625 159.542969 L 21.148438 115.5625 L 28.0625 107.949219 L 26.515625 98.300781 L 25.511719 87.488281 L 42.402344 83.28125 C 48.113281 93.699219 51.5625 103.175781 46.527344 109.089844 Z M 24.355469 175.667969 L 24.289062 175.695312 C 22.792969 177.4375 21.148438 178.863281 19.085938 179.363281 C 17.210938 180.6875 14.640625 180.378906 13.125 178.65625 C 11.699219 177.03125 11.613281 174.625 12.921875 172.90625 L 19.089844 164.808594 C 21.726562 165.675781 24.289062 165.421875 26.726562 163.386719 L 28.054688 166.289062 C 28.855469 168.019531 28.914062 170.003906 28.210938 171.777344 C 27.867188 172.65625 27.347656 173.453125 26.683594 174.121094 C 26.019531 174.789062 25.230469 175.316406 24.355469 175.667969 Z M 24.355469 175.667969 "/>
<path style=" stroke:none;fill-rule:nonzero;fill:rgb(62.745098%,38.039216%,41.568627%);fill-opacity:1;" d="M 5.546875 107.035156 L 1.027344 110.925781 C -0.148438 111.9375 -0.339844 113.691406 0.589844 114.933594 C 1.347656 115.953125 2.675781 116.367188 3.875 115.957031 C 4.582031 115.714844 5.167969 115.214844 5.519531 114.558594 L 8.789062 108.429688 L 23.777344 80.933594 L 18.140625 79.867188 Z M 5.546875 107.035156 "/>
<path style=" stroke:none;fill-rule:nonzero;fill:rgb(61.176471%,1.176471%,19.607843%);fill-opacity:1;" d="M 24.679688 81.707031 C 21.753906 80.816406 19.011719 80.292969 16.882812 80.984375 C 17.328125 75.441406 18.246094 70.484375 21.234375 68.117188 L 25.480469 68.621094 Z M 24.679688 81.707031 "/>
<path style=" stroke:none;fill-rule:nonzero;fill:rgb(1.176471%,9.411765%,24.705882%);fill-opacity:1;" d="M 40.621094 44.1875 L 24.316406 43.179688 L 24.515625 39.898438 C 30.207031 36.042969 35.640625 36.378906 40.820312 40.90625 Z M 40.621094 44.1875 "/>
</g>
</svg>
