<svg width="485" height="334" fill="none" xmlns="http://www.w3.org/2000/svg"><g clip-path="url(#a)"><path d="M416.377 139.54c6.685 7.037 14.143 8.16 22.375 3.369-3.454-5.556-4.277-11.6-3.356-17.967H419.36c.711 5.595.52 10.804-2.983 14.598zM442.854 323.699l8.577-4.491 3.729-47.537v-25.079l-19.764-.374 5.593 25.079 1.865 52.402zM417.992 323.699l-8.577-4.491-3.729-47.537v-25.079l19.764-.374-5.594 25.079-1.864 52.402z" fill="#FFB8B8"/><path d="m404.817 251.832 20.883-1.871 3.356-19.09 4.102 18.716 22.748-1.498c.497-9.095-.765-18.455-3.729-28.073l-49.971-1.123 2.611 32.939z" fill="#03183F"/><path d="m383.111 180.14-25.12-19.416a3.693 3.693 0 0 0-.853-.491l-3.651-1.491c-2.932-1.197-8.518-5.181-5.794-9.282 2.197-3.307 10.604 2.617 11.638 4.811.327.691.863 1.26 1.532 1.627l5.105 2.808c.124.068.252.129.383.182l19.436 7.907a3.644 3.644 0 0 0 3.329-.301l3.523-2.243a3.641 3.641 0 0 1 4.796.79c.374.463.63 1.01.745 1.595l1.164 5.899c.168.85.031 1.731-.387 2.489a3.664 3.664 0 0 1-1.895 1.651l-10.421 3.986a3.635 3.635 0 0 1-3.53-.521z" fill="#FFB8B8"/><path d="M387.777 165.994c6.955-1.872 6.225 7.881 11.531 12.676l10.433-8.267-6.043-29.366a10.86 10.86 0 0 0-4.356 2.445 10.915 10.915 0 0 0-2.809 4.141l-8.756 18.371z" fill="#9C0332"/><path d="M400.715 220.765h52.581c-8.51-23.018-7.681-46.691-.436-70.815a1.802 1.802 0 0 0-.88-2.117l-15.093-7.918c-5.924 3.869-12.291 2.68-19.018-2.621l-16.409 4.492c4.467 26.927 4.594 53.301-.745 78.979z" fill="#9C0332"/><path d="m413.862 332.491-21.912.932a3.856 3.856 0 0 1-2.626-.884 3.892 3.892 0 0 1-.75-5.158 3.864 3.864 0 0 1 2.291-1.608l3.717-.915 14.608-8.498c2.164 2.249 5.144 4.151 8.787 5.771l.043 5.975a4.368 4.368 0 0 1-1.196 3.035 4.338 4.338 0 0 1-2.962 1.35z" fill="#03183F"/><path d="M484.783 333.5H.176v-1.202H485l-.217 1.202z" fill="#3F3D56" fill-opacity=".4"/><path d="m446.801 332.157 21.913.932a3.852 3.852 0 0 0 2.626-.885 3.887 3.887 0 0 0 .75-5.157 3.864 3.864 0 0 0-2.291-1.608l-3.717-.915-14.608-8.498c-2.164 2.249-5.144 4.151-8.787 5.771l-.043 5.975a4.368 4.368 0 0 0 1.196 3.035 4.336 4.336 0 0 0 2.961 1.35z" fill="#03183F"/><path d="M425.7 131.68c6.591 0 11.933-5.363 11.933-11.978 0-6.615-5.342-11.978-11.933-11.978s-11.933 5.363-11.933 11.978c0 6.615 5.342 11.978 11.933 11.978zM444.346 217.022l-3.943 7.694a5.438 5.438 0 0 0 1.001 6.32 5.39 5.39 0 0 0 4.264 1.545 5.367 5.367 0 0 0 2.271-.731 5.408 5.408 0 0 0 2.593-3.878l1.645-11.324 5.967-28.448-.373-14.223h-11.933c4.07 10.579 2.051 26.183-1.492 43.045z" fill="#FFB8B8"/><path d="M443.973 175.474h16.035l-2.327-17.652a14.494 14.494 0 0 0-2.641-6.621 14.428 14.428 0 0 0-5.473-4.549l-5.594 28.822z" fill="#9C0332"/><path d="M438.387 113.104a11.549 11.549 0 0 0-2.508-9.046c-2.036-2.418-5.449-4.397-11.111-3.463-12.353 2.037-15.915 12.359-14.705 14.955 1.21 2.596 4.92 8.614 4.92 8.614s-2.723-5.957.232-7.17c2.955-1.212 14.39-5.989 18.382-3.837a7.161 7.161 0 0 1 2.78 2.492 7.2 7.2 0 0 1 1.154 3.557l.856-6.102z" fill="#03183F"/><path d="m234.139 63.255-4.798 2.443a108.967 108.967 0 0 0-21.656-29.31C164.426-5.355 95.399-3.99 53.812 39.43c-41.587 43.42-40.228 112.704 3.03 154.447a108.747 108.747 0 0 0 27.95 19.58l-2.347 4.859a114.295 114.295 0 0 1-41.377-34.201 114.855 114.855 0 0 1-21.274-49.384 115.043 115.043 0 0 1 3.515-53.686 114.718 114.718 0 0 1 27.532-46.163A114.144 114.144 0 0 1 96.323 6.41a113.802 113.802 0 0 1 53.413-4.507 113.975 113.975 0 0 1 49.58 20.45 114.521 114.521 0 0 1 34.823 40.9z" fill="#E6E6E6"/><path d="M71.817 163.721a38.617 38.617 0 0 0-10.708 27.468 38.604 38.604 0 0 0 11.778 27.022 38.316 38.316 0 0 0 27.365 10.749 38.326 38.326 0 0 0 26.922-11.822l6.61-6.901-55.357-53.417-6.61 6.901z" fill="#E6E6E6"/><path d="M74.718 152.9a8.62 8.62 0 0 0-2.383 6.124 8.617 8.617 0 0 0 2.622 6.024l50.773 48.994a8.541 8.541 0 0 0 6.101 2.396 8.543 8.543 0 0 0 6.001-2.636 8.608 8.608 0 0 0-.238-12.147l-50.773-48.994a8.55 8.55 0 0 0-12.103.239z" fill="#03183F"/><path d="m227.001 112.912 6.61-6.901a38.62 38.62 0 0 0 10.709-27.468 38.606 38.606 0 0 0-11.778-27.022 38.386 38.386 0 0 0-12.618-8.107 38.265 38.265 0 0 0-14.748-2.642 38.329 38.329 0 0 0-26.922 11.822l-6.61 6.901 55.357 53.417z" fill="#E6E6E6"/><path d="M167.596 55.93a8.617 8.617 0 0 0-2.383 6.123 8.614 8.614 0 0 0 2.622 6.024l50.773 48.994a8.54 8.54 0 0 0 6.099 2.392 8.546 8.546 0 0 0 5.999-2.636 8.608 8.608 0 0 0 2.387-6.12 8.61 8.61 0 0 0-2.621-6.023L179.699 55.69a8.553 8.553 0 0 0-6.101-2.392 8.555 8.555 0 0 0-6.002 2.631zM189.014 169.153v-3.98s17.306-9.771 31.367 0v3.618l-31.367.362zM346.569 169.153v-3.98s17.306-9.771 31.367 0v3.618l-31.367.362z" fill="#03183F"/><path d="M240.932 168.792h-16.946s-4.326-5.067-18.747-4.705c-14.422.362-17.306 4.705-17.306 4.705s-14.241 9.589-17.486 21.532c0 0-17.486 52.653-17.847 93.908-.36 41.255 15.503 47.045 23.796 48.13 8.292 1.086 23.074-.361 37.495-36.912l6.13-21.351s1.081-12.666 14.061-4.704c12.979 7.961 24.516-4.343 24.516-4.343h48.673s16.224 10.133 31.006 2.172c0 0 5.768-7.6 11.176 18.094 0 0 16.585 52.835 42.183 47.406 25.598-5.428 22.714-49.578 22.714-49.578s-3.425-67.491-17.486-91.375c0 0-13.52-24.789-22.534-25.875 0 0-19.469-3.618-27.04-.361l-4.326 3.618-102.032-.361z" fill="#E6E6E6"/><path d="M201.633 235.74c17.324 0 31.367-14.096 31.367-31.484s-14.043-31.484-31.367-31.484c-17.323 0-31.367 14.096-31.367 31.484s14.044 31.484 31.367 31.484zM365.317 235.74c17.323 0 31.367-14.096 31.367-31.484s-14.044-31.484-31.367-31.484-31.367 14.096-31.367 31.484 14.044 31.484 31.367 31.484z" fill="#03183F"/><path d="m207.099 197.235-4.182 3.713a1.936 1.936 0 0 1-2.564 0l-4.189-3.713a1.931 1.931 0 0 1-.482-.653 1.925 1.925 0 0 1-.174-.794v-10.216c.001-.516.205-1.01.569-1.374a1.935 1.935 0 0 1 1.37-.569h8.383a1.936 1.936 0 0 1 1.94 1.939v10.213a1.943 1.943 0 0 1-.671 1.454zM207.099 211.273l-4.182-3.709a1.936 1.936 0 0 0-2.564 0l-4.189 3.713a1.931 1.931 0 0 0-.482.653c-.114.249-.173.52-.174.794v10.205a1.935 1.935 0 0 0 1.932 1.947h8.39a1.944 1.944 0 0 0 1.94-1.94v-10.208a1.957 1.957 0 0 0-.671-1.455zM194.642 209.749l3.699-4.205a1.95 1.95 0 0 0 0-2.573l-3.699-4.205a1.942 1.942 0 0 0-1.442-.658h-10.167a1.935 1.935 0 0 0-1.369.571c-.363.365-.567.86-.567 1.376v8.413c-.001.516.202 1.01.564 1.375.363.366.855.571 1.368.572h10.175a1.929 1.929 0 0 0 1.438-.666zM208.628 209.749l-3.692-4.208a1.946 1.946 0 0 1 0-2.573l3.699-4.205a1.932 1.932 0 0 1 1.442-.659h10.167a1.944 1.944 0 0 1 1.94 1.94v8.421a1.945 1.945 0 0 1-1.933 1.947h-10.17a1.943 1.943 0 0 1-1.453-.663z" fill="#E6E6E6"/><path d="M244.177 261.433c12.544 0 22.713-10.207 22.713-22.798 0-12.591-10.169-22.799-22.713-22.799-12.545 0-22.714 10.208-22.714 22.799s10.169 22.798 22.714 22.798zM322.774 261.433c12.544 0 22.714-10.207 22.714-22.798 0-12.591-10.17-22.799-22.714-22.799-12.545 0-22.714 10.208-22.714 22.799s10.169 22.798 22.714 22.798z" fill="#03183F"/><path d="M244.177 253.834c8.363 0 15.142-6.805 15.142-15.199s-6.779-15.199-15.142-15.199-15.143 6.805-15.143 15.199 6.78 15.199 15.143 15.199z" fill="#E6E6E6"/><path d="M244.177 249.129c-2.068 0-4.09-.615-5.809-1.768a10.478 10.478 0 0 1-3.851-4.71 10.54 10.54 0 0 1-.595-6.064 10.508 10.508 0 0 1 2.861-5.373 10.422 10.422 0 0 1 11.395-2.275 10.463 10.463 0 0 1 4.692 3.865 10.523 10.523 0 0 1 1.762 5.831 10.526 10.526 0 0 1-3.066 7.417 10.443 10.443 0 0 1-7.389 3.077zm0-20.265a9.707 9.707 0 0 0-5.409 1.647 9.763 9.763 0 0 0-3.585 4.385 9.792 9.792 0 0 0 2.11 10.648 9.705 9.705 0 0 0 10.609 2.118 9.746 9.746 0 0 0 4.369-3.599 9.802 9.802 0 0 0 1.64-5.428 9.8 9.8 0 0 0-2.854-6.906 9.726 9.726 0 0 0-6.88-2.865z" fill="#03183F"/><path d="M322.774 253.834c8.363 0 15.142-6.805 15.142-15.199s-6.779-15.199-15.142-15.199-15.143 6.805-15.143 15.199 6.78 15.199 15.143 15.199z" fill="#E6E6E6"/><path d="M322.774 249.129c-2.068 0-4.09-.615-5.809-1.768a10.485 10.485 0 0 1-3.851-4.71 10.54 10.54 0 0 1-.595-6.064 10.51 10.51 0 0 1 2.862-5.373 10.422 10.422 0 0 1 11.394-2.275 10.463 10.463 0 0 1 4.692 3.865 10.523 10.523 0 0 1 1.762 5.831 10.521 10.521 0 0 1-3.066 7.417 10.447 10.447 0 0 1-7.389 3.077zm0-20.265a9.702 9.702 0 0 0-5.408 1.647 9.758 9.758 0 0 0-3.586 4.385 9.792 9.792 0 0 0 2.11 10.648 9.705 9.705 0 0 0 10.609 2.118 9.746 9.746 0 0 0 4.369-3.599 9.802 9.802 0 0 0 1.64-5.428 9.8 9.8 0 0 0-2.854-6.906 9.726 9.726 0 0 0-6.88-2.865zM284.196 247.682c3.584 0 6.49-2.917 6.49-6.514 0-3.598-2.906-6.514-6.49-6.514s-6.489 2.916-6.489 6.514c0 3.597 2.905 6.514 6.489 6.514zM274.278 220.848a1.42 1.42 0 0 0 1.417-1.422 1.42 1.42 0 0 0-1.417-1.422 1.42 1.42 0 0 0-1.417 1.422c0 .786.634 1.422 1.417 1.422zM279.585 220.848a1.42 1.42 0 0 0 1.417-1.422 1.42 1.42 0 0 0-1.417-1.422 1.42 1.42 0 0 0-1.417 1.422c0 .786.634 1.422 1.417 1.422zM278.878 227.597c.783 0 1.417-.636 1.417-1.422a1.42 1.42 0 0 0-1.417-1.422 1.42 1.42 0 0 0-1.417 1.422 1.42 1.42 0 0 0 1.417 1.422zM283.836 227.778c.796 0 1.442-.648 1.442-1.447 0-.8-.646-1.448-1.442-1.448-.797 0-1.442.648-1.442 1.448 0 .799.645 1.447 1.442 1.447zM288.786 227.597a1.42 1.42 0 0 0 1.417-1.422 1.42 1.42 0 0 0-1.417-1.422 1.42 1.42 0 0 0-1.417 1.422c0 .786.634 1.422 1.417 1.422zM276.755 224.402a1.42 1.42 0 0 0 1.417-1.422 1.42 1.42 0 0 0-1.417-1.422c-.783 0-1.417.636-1.417 1.422a1.42 1.42 0 0 0 1.417 1.422zM281.312 224.521c.796 0 1.442-.648 1.442-1.447 0-.8-.646-1.448-1.442-1.448-.797 0-1.442.648-1.442 1.448 0 .799.645 1.447 1.442 1.447zM285.999 224.521c.796 0 1.442-.648 1.442-1.447 0-.8-.646-1.448-1.442-1.448-.797 0-1.442.648-1.442 1.448 0 .799.645 1.447 1.442 1.447zM290.909 224.402a1.42 1.42 0 0 0 1.417-1.422c0-.786-.634-1.422-1.417-1.422-.782 0-1.416.636-1.416 1.422a1.42 1.42 0 0 0 1.416 1.422zM283.836 220.903c.796 0 1.442-.649 1.442-1.448 0-.799-.646-1.447-1.442-1.447-.797 0-1.442.648-1.442 1.447s.645 1.448 1.442 1.448zM288.883 220.903c.797 0 1.442-.649 1.442-1.448 0-.799-.645-1.447-1.442-1.447-.796 0-1.442.648-1.442 1.447s.646 1.448 1.442 1.448zM293.033 220.848a1.42 1.42 0 0 0 1.417-1.422 1.42 1.42 0 0 0-1.417-1.422 1.42 1.42 0 0 0-1.417 1.422c0 .786.634 1.422 1.417 1.422zM230.296 171.876a2.517 2.517 0 0 0-1.778.74 2.532 2.532 0 0 0-.738 1.785V182c.001.67.266 1.312.738 1.785a2.517 2.517 0 0 0 1.778.74h1.803a2.514 2.514 0 0 0 1.777-.74 2.532 2.532 0 0 0 .738-1.785v-7.599a2.532 2.532 0 0 0-.738-1.785 2.514 2.514 0 0 0-1.777-.74h-1.803zM335.573 171.876a2.51 2.51 0 0 0-1.778.74 2.532 2.532 0 0 0-.738 1.785V182c.001.67.266 1.312.738 1.785a2.515 2.515 0 0 0 1.778.74h1.802a2.515 2.515 0 0 0 1.778-.74 2.532 2.532 0 0 0 .738-1.785v-7.599a2.532 2.532 0 0 0-.738-1.785 2.51 2.51 0 0 0-1.778-.74h-1.802z" fill="#03183F"/><path d="M365.678 193.761c4.779 0 8.653-3.888 8.653-8.685 0-4.797-3.874-8.685-8.653-8.685s-8.653 3.888-8.653 8.685c0 4.797 3.874 8.685 8.653 8.685zM347.29 212.217c4.779 0 8.653-3.888 8.653-8.685 0-4.796-3.874-8.685-8.653-8.685s-8.653 3.889-8.653 8.685c0 4.797 3.874 8.685 8.653 8.685zM384.786 211.132c4.779 0 8.653-3.889 8.653-8.685 0-4.797-3.874-8.686-8.653-8.686s-8.653 3.889-8.653 8.686c0 4.796 3.874 8.685 8.653 8.685zM367.12 230.312c4.779 0 8.653-3.889 8.653-8.686 0-4.796-3.874-8.685-8.653-8.685s-8.653 3.889-8.653 8.685c0 4.797 3.874 8.686 8.653 8.686z" fill="#E6E6E6"/><path d="M246.61 166.809a7.292 7.292 0 0 0-5.154 2.147 7.341 7.341 0 0 0-2.138 5.173v32.389a7.341 7.341 0 0 0 2.138 5.173 7.292 7.292 0 0 0 5.154 2.147h74.09a7.295 7.295 0 0 0 5.155-2.147 7.341 7.341 0 0 0 2.138-5.173v-32.389a7.341 7.341 0 0 0-2.138-5.173 7.295 7.295 0 0 0-5.155-2.147h-74.09zM371.556 189.057h-11.734l5.665-9.747 6.069 9.747zm-10.478-.724h9.177l-4.747-7.623-4.43 7.623zM352.158 207.875h-9.735v-8.685h9.735v8.685zm-9.014-.724h8.293v-7.238h-8.293v7.238zM384.786 207.875a5.396 5.396 0 0 1-3.004-.915 5.438 5.438 0 0 1-.82-8.352 5.398 5.398 0 0 1 8.321.823 5.442 5.442 0 0 1-.675 6.852 5.402 5.402 0 0 1-3.822 1.592zm0-10.133c-.927 0-1.833.276-2.604.793a4.718 4.718 0 0 0-.71 7.238 4.676 4.676 0 0 0 7.211-.713 4.718 4.718 0 0 0-.584-5.939 4.686 4.686 0 0 0-3.313-1.379zM363.229 217.299l-.51.512 8.112 8.142.51-.511-8.112-8.143z" fill="#03183F"/><path d="m371.016 217.293-8.291 7.963.498.523 8.292-7.963-.499-.523zM76.638 84.116c-19.685 5.448-41.242 9.548-48.966 3.187 4.23-7.067 6.668-14.032 6.875-20.87a12.021 12.021 0 0 1 3.519-8.324 13.372 13.372 0 0 1 5.162-3.114c1.934-.631 3.986-.811 6-.527l5.109.72c.172.024.343.051.513.082a11.935 11.935 0 0 1 6.42 3.504 12.01 12.01 0 0 1 3.186 6.602c1.077 7.415 4.696 13.834 12.182 18.74z" fill="#03183F"/><path d="m95.627 154.467 7.653 1.584c.584.12 1.135.371 1.611.732a4.037 4.037 0 0 1 1.268 4.816 4.024 4.024 0 0 1-4.183 2.407 4.016 4.016 0 0 1-1.614-.567l-11.706-7.227-19.884-46.917 10.299-2.99 16.556 48.162zM41.11 216.03l-5.794 1.692-4.387-9.093 4.46-2.333 5.721 9.734zM38.166 254.987l-7.11-1.89 1.113-12.26 6.119.378-.122 13.772z" fill="#A0616A"/><path d="m38.907 207.531-7.53 4.974-28.961-32.882a6.504 6.504 0 0 1-.516-7.913 6.477 6.477 0 0 1 2.04-1.94l36.08-21.638 5.526 15.933-18.787 17.695 12.148 25.771zM45.249 224.743l-.057.074c-.481 2.828-1.326 5.408-3.214 7.276a5.628 5.628 0 0 1-2.823 2.852 5.595 5.595 0 0 1-3.998.24 5.622 5.622 0 0 1-3.02-2.301 5.657 5.657 0 0 1-.875-3.703l1.407-12.624c3.375-.779 5.95-2.706 7.252-6.454l3.28 2.242a8.659 8.659 0 0 1 3.68 5.757 8.688 8.688 0 0 1-1.632 6.641z" fill="#03183F"/><path d="M48.819 81.413c6.4 0 11.59-5.209 11.59-11.633 0-6.425-5.19-11.634-11.59-11.634-6.401 0-11.59 5.209-11.59 11.634 0 6.424 5.189 11.633 11.59 11.633z" fill="#A0616A"/><path d="m58.856 88.376-18.272 15.189-1.423-6.252 3.19-4.88c.884-4.787.313-10.066-1.208-15.666l11.92.01c.515 4.526 2.27 8.474 5.793 11.6z" fill="#A0616A"/><path d="m64 128.219-24.667 7.541-1.919-8.805c-4.623-6.23-6.632-11.917-3.608-16.556l-1.522-6.983c4.366-3.45 7.799-6.98 9.684-10.643l15.177-5.953 11.157.69 3.294 11.081L64 128.22z" fill="#9C0332"/><path d="M81.524 107.544a25.346 25.346 0 0 0-14.728 4.53l1.506-24.565a8.865 8.865 0 0 1 4.204 1.744 8.91 8.91 0 0 1 2.793 3.603l6.225 14.688z" fill="#9C0332"/><path d="m38.83 244.149-7.829-1.934 1.152-66.772 10.514-11.556-2.354-14.65-1.523-16.411 25.68-6.391c8.68 15.819 13.927 30.202 6.269 39.186L38.83 244.149zM37.032 266.694l-.105.041c-2.274 2.65-4.772 4.81-7.912 5.57a6.825 6.825 0 0 1-9.059-1.074 6.886 6.886 0 0 1-.307-8.726l9.373-12.294c4.012 1.316 7.906.928 11.614-2.163l2.02 4.411a10.573 10.573 0 0 1 .238 8.331 10.545 10.545 0 0 1-2.325 3.558 10.496 10.496 0 0 1-3.537 2.346z" fill="#03183F"/><path d="m8.432 162.498-6.872 5.906a4.49 4.49 0 0 0-.665 6.089 4.446 4.446 0 0 0 4.999 1.549 4.463 4.463 0 0 0 2.496-2.123l4.97-9.303 22.79-41.744-8.572-1.617-19.146 41.243z" fill="#A0616A"/><path d="M37.522 124.045c-4.45-1.349-8.62-2.143-11.854-1.095.678-8.419 2.075-15.94 6.616-19.534l6.456.761-1.218 19.868z" fill="#9C0332"/><path d="m61.757 67.082-24.789-1.53.305-4.977c8.653-5.857 16.916-5.346 24.79 1.53l-.306 4.977z" fill="#03183F"/></g><defs><clipPath id="a"><path fill="#fff" transform="translate(0 .5)" d="M0 0h485v333H0z"/></clipPath></defs></svg>